C:\GBW_MyPrograms\PredSimResults\gait1018_esmac\gait1018_esmac_v37.mot
version=1
nRows=9
nColumns=29
inDegrees=yes
endheader
                time	         pelvis_tilt	           pelvis_tx	           pelvis_ty	       hip_flexion_l	       hip_flexion_r	        knee_angle_l	        knee_angle_r	       ankle_angle_l	       ankle_angle_r	    lumbar_extension	hamstrings_r/activation	bifemsh_r/activation	glut_max_r/activation	iliopsoas_r/activation	rect_fem_r/activation	  vasti_r/activation	gastroc_r/activation	 soleus_r/activation	tib_ant_r/activation	hamstrings_l/activation	bifemsh_l/activation	glut_max_l/activation	iliopsoas_l/activation	rect_fem_l/activation	  vasti_l/activation	gastroc_l/activation	 soleus_l/activation	tib_ant_l/activation	
          1.54894223	         -7.67626702	          1.92997525	          0.89432468	         34.89849163	         -7.06753713	        -14.79416482	        -14.11026350	         10.38191464	          6.24626546	          0.17105620	          0.01000039	          0.01000269	          0.01000088	          0.23512908	          0.29732784	          0.04894037	          0.27135717	          0.28781139	          0.01000004	          0.17868930	          0.01445324	          0.05938426	          0.02572911	          0.02212110	          0.03156431	          0.01172117	          0.02831507	          0.22003391	
          1.55926851	         -7.67508937	          1.94575006	          0.89371168	         34.33059810	         -7.78190189	        -14.05489902	        -14.49938329	         10.11687712	          4.95419325	          0.49823483	          0.01000021	          0.01000334	          0.01000098	          0.20277114	          0.25367034	          0.04175432	          0.25277034	          0.26477219	          0.01000005	          0.16790819	          0.01233125	          0.05066613	          0.02195122	          0.01887308	          0.03836143	          0.01000021	          0.03601162	          0.22452187	
          1.56959479	         -7.67169941	          1.96186866	          0.89300700	         33.68611301	         -8.35996801	        -13.71172381	        -15.16002805	          9.61155745	          3.58665532	          0.86614066	          0.01000065	          0.01609867	          0.01000013	          0.17299751	          0.21642300	          0.03562341	          0.22416450	          0.22719157	          0.01000004	          0.15704491	          0.01052104	          0.04584454	          0.01872805	          0.01610194	          0.07814518	          0.01654066	          0.03072393	          0.30450268	
          1.57992108	         -7.66621643	          1.97828954	          0.89218876	         32.95524883	         -8.77592257	        -13.83066633	        -16.13086903	          8.95732557	          2.13731657	          1.27033930	          0.01000025	          0.01373572	          0.02841186	          0.14759568	          0.18464489	          0.03039273	          0.19124959	          0.19383217	          0.01000004	          0.13398541	          0.01000041	          0.06729051	          0.01597815	          0.01373771	          0.11761970	          0.01411210	          0.02679615	          0.31015672	
          1.59024736	         -7.66135434	          1.99486334	          0.89135228	         32.14190552	         -8.98943968	        -14.23896456	        -17.44506894	          8.22630845	          0.54467096	          1.69516155	          0.02780870	          0.01172039	          0.03176403	          0.12592366	          0.15753280	          0.02593009	          0.16316768	          0.16537104	          0.01000003	          0.11662347	          0.01610532	          0.13432088	          0.01363203	          0.01172060	          0.14166548	          0.01204004	          0.02286158	          0.42994168	
          1.60057364	         -7.66185527	          2.01127425	          0.89072841	         31.34430922	         -8.92274606	        -14.66015540	        -19.16218619	          7.41705654	         -1.31429222	          2.10579302	          0.02372549	          0.01000042	          0.02710021	          0.10743387	          0.13440277	          0.02212271	          0.13920914	          0.14108897	          0.01000003	          0.09949922	          0.01374077	          0.17416778	          0.01163040	          0.01000006	          0.19392852	          0.01027217	          0.01950474	          0.52051273	
          1.61089992	         -7.67061855	          2.02727557	          0.89049047	         30.67783032	         -8.52917838	        -15.25442310	        -21.28347675	          6.66477562	         -3.58246451	          2.47454019	          0.02024182	          0.01001158	          0.02312100	          0.09816363	          0.15712435	          0.01887436	          0.11876853	          0.12037233	          0.01000003	          0.08488944	          0.01172334	          0.19706897	          0.01000009	          0.01000036	          0.26455948	          0.01000638	          0.01808130	          0.56002785	
          1.62122620	         -7.68660303	          2.04280534	          0.89067250	         30.10015280	         -7.83152874	        -15.97690342	        -23.73744446	          6.23497848	         -6.22136994	          2.79330777	          0.01726968	          0.01000094	          0.01972606	          0.09310790	          0.14987462	          0.01610298	          0.10132929	          0.10269760	          0.19325353	          0.07392844	          0.01000233	          0.22368688	          0.01000011	          0.01000028	          0.32590608	          0.01061350	          0.01542645	          0.60852509	
          1.63155248	         -7.71020525	          2.05783272	          0.89115536	         29.52409513	         -6.89990198	        -16.65993127	        -26.40897191	          6.06081595	         -8.49743354	          3.05942467	          0.01473402	          0.02345385	          0.01682962	          0.09490622	          0.15584450	          0.01373852	          0.08645072	          0.08761812	          0.16487745	          0.06508000	          0.01000090	          0.22915865	          0.01000007	          0.01000018	          0.36176156	          0.01000015	          0.01316136	          0.62862416	
